<svg xmlns="http://www.w3.org/2000/svg" width="24" height="24" viewBox="0 0 24 24" fill="none">
<path d="M12 1C5.939 1 1 5.939 1 12C1 18.061 5.939 23 12 23C18.061 23 23 18.061 23 12C23 5.939 18.061 1 12 1ZM15.696 14.53C16.015 14.849 16.015 15.377 15.696 15.696C15.531 15.861 15.322 15.938 15.113 15.938C14.904 15.938 14.695 15.861 14.53 15.696L12 13.166L9.47 15.696C9.305 15.861 9.096 15.938 8.887 15.938C8.678 15.938 8.469 15.861 8.304 15.696C7.985 15.377 7.985 14.849 8.304 14.53L10.834 12L8.304 9.47C7.985 9.151 7.985 8.623 8.304 8.304C8.623 7.985 9.151 7.985 9.47 8.304L12 10.834L14.53 8.304C14.849 7.985 15.377 7.985 15.696 8.304C16.015 8.623 16.015 9.151 15.696 9.47L13.166 12L15.696 14.53Z" fill="url(#paint0_linear_2206_58101)"/>
<defs>
<linearGradient id="paint0_linear_2206_58101" x1="3.94643" y1="2.17857" x2="20.0536" y2="22.0179" gradientUnits="userSpaceOnUse">
<stop stop-color="#E27D67"/>
<stop offset="0.4375" stop-color="#C34C46"/>
<stop offset="0.958333" stop-color="#E47961"/>
</linearGradient>
</defs>
</svg>