<svg width="24" height="24" viewBox="0 0 24 24" fill="none" xmlns="http://www.w3.org/2000/svg">
<rect width="24" height="24" rx="12" fill="#242424"/>
<path fill-rule="evenodd" clip-rule="evenodd" d="M18.8787 8.24425C20.4181 10.6301 20.5569 14.5613 18.1242 17.4079C15.664 20.2868 11.3214 20.7461 8.26241 18.8932C8.00955 18.74 7.92473 18.404 8.07295 18.1427C8.22116 17.8814 8.5463 17.7937 8.79916 17.9469C11.4628 19.5604 15.2361 19.1305 17.3287 16.6819C19.4207 14.2338 19.2869 10.854 17.9956 8.85271C17.833 8.60071 17.8989 8.2602 18.1428 8.09218C18.3867 7.92416 18.7161 7.99224 18.8787 8.24425Z" fill="#777777"/>
<path fill-rule="evenodd" clip-rule="evenodd" d="M19.8365 4.9528C20.0545 4.73484 20.0545 4.38144 19.8365 4.16347C19.6185 3.94551 19.2652 3.94551 19.0472 4.16347L17.0798 6.13092C17.0492 6.09083 17.0128 6.05424 16.9705 6.02249C13.5446 3.44959 8.89491 3.7647 6.1533 6.53856C4.75801 7.95025 4.17133 9.9918 4.20945 11.9816C4.24597 13.8883 4.85652 15.827 5.97722 17.2334L4.16347 19.0472C3.94551 19.2652 3.94551 19.6185 4.16347 19.8365C4.38144 20.0545 4.73484 20.0545 4.9528 19.8365L19.8365 4.9528ZM6.77262 16.438L16.2975 6.91313C13.2872 4.65418 9.26889 4.97429 6.94723 7.32326C5.821 8.46273 5.2914 10.1789 5.32552 11.9602C5.35733 13.6205 5.87859 15.2622 6.77262 16.438Z" fill="#777777"/>
</svg>
